#!OML:ASF F:\VICON\USERDATA\INSTALL\rory3\rory3.ASF
:FULLY-SPECIFIED
:DEGREES
211
root 5.39049 17.8812 9.61509 -2.93351 -1.64953 -3.07851
lowerback 9.42442 1.92337 1.79333
upperback 0.31088 2.78102 0.566157
thorax -4.90314 1.3381 -0.792271
lowerneck -17.6585 -3.59963 -1.69728
upperneck 16.5522 -4.8276 1.70611
head 8.12158 -2.22099 0.263722
rclavicle 1.5002e-014 6.16232e-015
rhumerus -26.1364 -14.6258 -81.5852
rradius 32.3027
rwrist -0.476632
rhand -17.7434 23.1135
rfingers 7.12502
rthumb 8.51797 -6.6947
lclavicle 1.5002e-014 6.16232e-015
lhumerus -38.2855 7.77923 80.9419
lradius 25.9545
lwrist -0.447864
lhand -22.7202 27.1474
lfingers 7.12502
lthumb 3.71331 57.0948
rfemur 4.7189 2.83481 27.4801
rtibia 51.0164
rfoot 8.22686 0.564197
rtoes 13.1219
lfemur -20.8822 -1.98534 -19.5486
ltibia 29.417
lfoot -4.78439 -3.89049
ltoes 0.852599
212
root 5.40504 17.9117 9.8135 -3.03747 -1.54041 -2.59486
lowerback 9.49563 1.89273 1.27679
upperback 0.276333 2.68115 0.463762
thorax -5.00015 1.2984 -0.599704
lowerneck -17.6799 -3.57007 -1.58927
upperneck 16.829 -4.78877 1.54084
head 8.21033 -2.21035 0.193156
rclavicle -2.10401e-014 -7.95139e-015
rhumerus -26.3446 -14.9967 -81.4858
rradius 31.8088
rwrist -0.176178
rhand -17.5441 22.9812
rfingers 7.12502
rthumb 8.71031 -6.81909
lclavicle -2.10401e-014 -7.95139e-015
lhumerus -38.5244 7.35135 81.0915
lradius 26.0936
lwrist 1.33991
lhand -24.3949 22.0839
lfingers 7.12502
lthumb 2.09598 52.0533
rfemur 3.38279 2.51199 26.7684
rtibia 53.4703
rfoot 10.2638 0.167715
rtoes 15.0916
lfemur -19.986 -1.9533 -20.2216
ltibia 29.2911
lfoot -5.36908 -3.83279
ltoes 1.19005
213
root 5.42265 17.932 9.99535 -3.0371 -1.39095 -2.28072
lowerback 9.50398 1.8146 0.980305
upperback 0.302398 2.54165 0.404138
thorax -4.98997 1.23602 -0.476496
lowerneck -17.4812 -3.43998 -1.50127
upperneck 16.5573 -4.609 1.43887
head 8.07669 -2.13401 0.172907
rclavicle -1.07095e-014 2.98177e-015
rhumerus -26.3116 -15.2906 -81.4716
rradius 31.2202
rwrist -0.00753542
rhand -17.376 23.2362
rfingers 7.12502
rthumb 8.87248 -6.55724
lclavicle -1.07095e-014 2.98177e-015
lhumerus -38.5043 6.67335 81.3897
lradius 26.4665
lwrist 2.72983
lhand -25.1522 21.0552
lfingers 7.12502
lthumb 1.36452 51.0306
rfemur 1.81777 2.15116 26.2593
rtibia 55.8967
rfoot 12.6654 -0.226462
rtoes 19.6065
lfemur -19.1491 -2.05036 -20.7113
ltibia 28.9755
lfoot -5.72554 -3.87097
ltoes 0.800696
214
root 5.43918 17.9476 10.1691 -3.03615 -1.45346 -2.19285
lowerback 9.59972 1.74146 0.859983
upperback 0.339003 2.43462 0.456252
thorax -5.01406 1.1864 -0.342954
lowerneck -17.8834 -3.3225 -1.62857
upperneck 16.8775 -4.41864 1.45502
head 8.25518 -2.04475 0.212784
rclavicle -8.80243e-015 -7.95139e-016
rhumerus -26.35 -15.3567 -81.4808
rradius 30.8847
rwrist 0.260767
rhand -17.4247 23.475
rfingers 7.12502
rthumb 8.82552 -6.3205
lclavicle -8.80243e-015 -7.95139e-016
lhumerus -38.1418 6.47481 81.5915
lradius 26.6013
lwrist 3.1921
lhand -25.1495 22.6755
lfingers 7.12502
lthumb 1.36714 52.6508
rfemur 0.197114 1.9056 26.0398
rtibia 58.3412
rfoot 14.1188 -1.25975
rtoes 22.8916
lfemur -18.2876 -1.98479 -20.9087
ltibia 28.5267
lfoot -5.976 -3.70399
ltoes 0.839024
215
root 5.45566 17.9621 10.3521 -3.09843 -1.42631 -1.96586
lowerback 9.66721 1.66607 0.607159
upperback 0.321737 2.30768 0.461347
thorax -5.08141 1.12926 -0.181025
lowerneck -18.1514 -3.24906 -1.75054
upperneck 17.2965 -4.3099 1.54996
head 8.44725 -1.9863 0.270366
rclavicle -2.93145e-014 -2.18663e-015
rhumerus -26.6846 -15.5782 -81.378
rradius 30.5752
rwrist 0.738562
rhand -17.4028 23.5774
rfingers 7.12502
rthumb 8.84664 -6.21717
lclavicle -2.93145e-014 -2.18663e-015
lhumerus -37.924 6.26059 81.7432
lradius 26.6259
lwrist 3.71836
lhand -25.6458 22.4314
lfingers 7.12502
lthumb 0.88783 52.4093
rfemur -1.22738 1.53573 25.6569
rtibia 60.6565
rfoot 13.7095 -3.05767
rtoes 21.6401
lfemur -17.511 -2.21243 -21.2331
ltibia 28.2602
lfoot -6.00424 -3.53932
ltoes 2.19285
216
root 5.47295 17.9738 10.5447 -3.13475 -1.19475 -1.4282
lowerback 9.57357 1.53201 0.124534
upperback 0.310688 2.06919 0.334956
thorax -5.05394 1.02183 -0.00608929
lowerneck -17.9788 -3.17278 -1.77508
upperneck 17.1801 -4.20849 1.59619
head 8.3774 -1.93745 0.3061
rclavicle -7.24632e-015 -5.06901e-015
rhumerus -27.0531 -15.6047 -81.3945
rradius 30.3693
rwrist 0.98113
rhand -17.5157 23.3911
rfingers 7.12502
rthumb 8.73769 -6.40806
lclavicle -7.24632e-015 -5.06901e-015
lhumerus -37.8674 5.86008 81.8224
lradius 26.7523
lwrist 4.18943
lhand -26.0557 20.3723
lfingers 7.12502
lthumb 0.491988 50.3515
rfemur -2.62844 0.871559 24.8553
rtibia 62.8301
rfoot 12.4778 -5.12287
rtoes 19.1293
lfemur -16.9723 -2.58154 -21.8971
ltibia 28.0295
lfoot -5.87639 -3.57999
ltoes 5.04593
217
root 5.48409 17.9833 10.7272 -3.25488 -1.07609 -1.32247
lowerback 9.71918 1.48715 -0.0274125
upperback 0.311068 1.99564 0.384127
thorax -5.14219 0.989386 0.136488
lowerneck -17.6533 -3.12995 -1.86135
upperneck 16.8001 -4.11575 1.55838
head 8.1916 -1.9083 0.326516
rclavicle -7.77434e-015 -2.18663e-015
rhumerus -27.2791 -16.0009 -81.1638
rradius 30.0308
rwrist 1.31546
rhand -17.4969 23.3252
rfingers 7.12502
rthumb 8.75583 -6.47319
lclavicle -7.77434e-015 -2.18663e-015
lhumerus -37.4932 5.44733 81.997
lradius 26.4644
lwrist 4.55423
lhand -26.4482 19.1378
lfingers 7.12502
lthumb 0.112889 49.1176
rfemur -3.93859 0.337803 24.6319
rtibia 64.7804
rfoot 8.24476 -8.13575
rtoes 5.21889
lfemur -16.0599 -2.50907 -22.1518
ltibia 27.9554
lfoot -6.43592 -3.34891
ltoes 1.68584
218
root 5.49344 17.9883 10.9084 -3.38928 -1.04347 -1.34836
lowerback 9.90455 1.39693 -0.117242
upperback 0.333577 1.87188 0.500856
thorax -5.22896 0.931611 0.321479
lowerneck -17.6426 -3.0375 -1.86124
upperneck 16.6853 -3.95858 1.42093
head 8.14532 -1.84893 0.300893
rclavicle -9.83674e-015 4.12478e-015
rhumerus -27.1612 -16.4239 -80.9847
rradius 29.3339
rwrist 1.81191
rhand -17.581 23.2125
rfingers 7.12502
rthumb 8.6747 -6.5893
lclavicle -9.83674e-015 4.12478e-015
lhumerus -37.1329 5.64789 81.9627
lradius 26.361
lwrist 4.271
lhand -26.5663 19.7982
lfingers 7.12502
lthumb -0.00122274 49.778
rfemur -5.25965 -0.112494 24.626
rtibia 66.5564
rfoot 7.34778 -9.69696
rtoes 6.4502
lfemur -15.2975 -2.50111 -22.2144
ltibia 27.9592
lfoot -6.13799 -3.17157
ltoes 1.17555
219
root 5.50685 18.0026 11.0945 -3.45684 -0.904165 -1.17309
lowerback 9.99118 1.24185 -0.349154
upperback 0.286865 1.64266 0.559771
thorax -5.33295 0.825121 0.543594
lowerneck -17.7308 -2.98897 -1.86785
upperneck 16.8656 -3.85108 1.22056
head 8.21531 -1.81789 0.245765
rclavicle -1.05371e-015 -5.64051e-015
rhumerus -27.1467 -16.7727 -80.7814
rradius 28.5887
rwrist 2.64229
rhand -17.6401 23.1821
rfingers 7.12502
rthumb 8.61763 -6.62205
lclavicle -1.05371e-015 -5.64051e-015
lhumerus -37.1282 5.47153 82.0313
lradius 26.8315
lwrist 4.08476
lhand -25.7279 22.1476
lfingers 7.12502
lthumb 0.80855 52.1258
rfemur -6.61785 -0.570487 24.3291
rtibia 68.0944
rfoot 6.68715 -10.7791
rtoes 7.65864
lfemur -14.6278 -2.58763 -22.5528
ltibia 28.3908
lfoot -8.22537 -2.87211
ltoes 2.38741
220
root 5.52195 18.0119 11.2759 -3.50197 -0.699326 -0.573399
lowerback 9.93591 1.13293 -0.90018
upperback 0.328653 1.42828 0.436166
thorax -5.26551 0.731475 0.757269
lowerneck -17.7731 -2.9572 -1.97603
upperneck 16.9334 -3.79889 1.31705
head 8.24903 -1.78965 0.300937
rclavicle -6.42556e-016 1.1691e-014
rhumerus -27.2018 -17.409 -80.6189
rradius 28.1121
rwrist 3.77417
rhand -17.5908 23.3449
rfingers 7.12502
rthumb 8.66524 -6.45725
lclavicle -6.42556e-016 1.1691e-014
lhumerus -36.9319 5.09664 82.1092
lradius 27.1901
lwrist 3.81183
lhand -25.3082 24.3645
lfingers 7.12502
lthumb 1.21388 54.3408
rfemur -7.97727 -1.08957 23.4631
rtibia 69.4532
rfoot 6.16066 -11.464
rtoes 7.92294
lfemur -13.7474 -2.64158 -23.4068
ltibia 28.486
lfoot -9.02108 -2.4262
ltoes 0.155533
221
root 5.53831 17.9963 11.4457 -3.56596 -0.628567 -0.667294
lowerback 9.92888 0.993101 -0.770015
upperback 0.456872 1.26246 0.538889
thorax -5.1231 0.64686 0.816308
lowerneck -17.9341 -2.86921 -2.06455
upperneck 16.8477 -3.6586 1.36216
head 8.24873 -1.7236 0.346138
rclavicle 5.90686e-015 -3.47873e-016
rhumerus -27.2557 -17.931 -80.4535
rradius 27.8856
rwrist 4.60116
rhand -17.4765 23.3443
rfingers 7.12502
rthumb 8.77552 -6.45328
lclavicle 5.90686e-015 -3.47873e-016
lhumerus -36.3957 5.04465 82.145
lradius 27.4686
lwrist 2.90154
lhand -24.4584 28.6904
lfingers 7.12502
lthumb 2.03466 58.6604
rfemur -9.35662 -1.45357 23.4292
rtibia 70.6138
rfoot 5.1895 -11.8721
rtoes 7.69906
lfemur -12.9652 -2.65327 -23.4638
ltibia 28.4887
lfoot -9.61556 -2.02989
ltoes -1.37205
222
root 5.55137 18.0305 11.6237 -3.66003 -0.697886 -0.517329
lowerback 10.0237 0.957752 -0.951282
upperback 0.468578 1.19725 0.596346
thorax -5.16768 0.619712 0.986311
lowerneck -17.973 -2.80789 -2.10592
upperneck 16.8848 -3.55192 1.30791
head 8.26586 -1.68119 0.347208
rclavicle -1.4151e-014 -3.18055e-015
rhumerus -27.6728 -18.3604 -80.1134
rradius 27.6381
rwrist 5.00051
rhand -17.2895 23.6929
rfingers 7.12502
rthumb 8.956 -6.09699
lclavicle -1.4151e-014 -3.18055e-015
lhumerus -36.0434 4.63558 82.3828
lradius 27.0255
lwrist 4.20979
lhand -26.5493 23.3691
lfingers 7.12502
lthumb 0.015246 53.3488
rfemur -10.5764 -1.43383 23.2201
rtibia 71.4202
rfoot 4.39882 -11.8081
rtoes 7.37337
lfemur -12.0311 -2.66388 -23.7181
ltibia 28.2954
lfoot -10.1595 -1.69494
ltoes -1.53284
223
root 5.56182 18.0459 11.8092 -3.76587 -0.755567 -0.523995
lowerback 9.93496 0.911221 -0.963203
upperback 0.557063 1.13643 0.630704
thorax -5.02465 0.589369 1.0395
lowerneck -18.1125 -2.71312 -1.90801
upperneck 17.0317 -3.44659 1.1701
head 8.33164 -1.63157 0.279293
rclavicle -1.84342e-015 3.97569e-016
rhumerus -27.9647 -18.9632 -79.8891
rradius 27.4187
rwrist 5.34103
rhand -17.2113 23.564
rfingers 7.12502
rthumb 9.03141 -6.22264
lclavicle -1.84342e-015 3.97569e-016
lhumerus -35.4856 4.18105 82.4674
lradius 26.7259
lwrist 4.51737
lhand -27.308 21.1541
lfingers 7.12502
lthumb -0.717602 51.1326
rfemur -11.724 -1.46815 23.2007
rtibia 72.0742
rfoot 3.59424 -11.282
rtoes 4.69256
lfemur -11.114 -2.53431 -23.797
ltibia 28.0609
lfoot -10.661 -1.51253
ltoes -1.87388
